<?xml version="1.0" encoding="UTF-8"?>
<svg version="1.1" xmlns="http://www.w3.org/2000/svg" width="2757" height="1835">
<path d="M0 0 C909.81 0 1819.62 0 2757 0 C2757 605.55 2757 1211.1 2757 1835 C1847.19 1835 937.38 1835 0 1835 C0 1229.45 0 623.9 0 0 Z " fill="currentColor" transform="translate(0,0)"/>
<path d="M0 0 C0.76986229 -0.00453111 1.53972457 -0.00906223 2.33291602 -0.01373065 C4.90289355 -0.02635267 7.47265855 -0.0247557 10.04266357 -0.02310181 C11.88937145 -0.02908849 13.73607683 -0.03589436 15.58277893 -0.04345703 C20.59327926 -0.06111141 25.60371126 -0.06581222 30.61423969 -0.0670886 C33.74712393 -0.06851124 36.87999085 -0.072783 40.01287079 -0.07808304 C50.94973349 -0.09658245 61.88654747 -0.10475388 72.82342529 -0.10317993 C83.00607553 -0.10197901 93.18851363 -0.12307189 103.3711102 -0.15466726 C112.12291751 -0.18085193 120.87465564 -0.19154628 129.6265018 -0.19026911 C134.84929536 -0.18976006 140.07190042 -0.19541154 145.29465485 -0.21662521 C150.20968931 -0.23604409 155.12435619 -0.23610708 160.03940392 -0.22159195 C161.83805315 -0.21950719 163.63672561 -0.22418484 165.43533516 -0.23631287 C185.58990724 -0.36335648 185.58990724 -0.36335648 194.10809326 6.70492554 C198.80000944 12.53427594 200.29334568 17.12239604 200.29939443 24.56410474 C200.30266662 25.62060692 200.30593882 26.67710911 200.30931017 27.76562652 C200.30782654 28.92240949 200.30634292 30.07919247 200.30481434 31.27102947 C200.30716657 32.50800389 200.3095188 33.74497831 200.31194231 35.01943681 C200.31746776 38.46540897 200.31850385 41.91133025 200.3176649 45.35730331 C200.31783438 49.10162172 200.32374025 52.84593178 200.32890576 56.59024602 C200.33823552 64.02222809 200.34215444 71.45420421 200.34442473 78.8861914 C200.34738578 87.78589681 200.35608256 96.6855943 200.36483901 105.58529555 C200.3856873 127.09621761 200.3961534 148.60714104 200.40496862 170.11807084 C200.40917416 180.29172979 200.41439624 190.46538815 200.41965314 200.63904661 C200.43754274 235.45658131 200.45253973 270.27411617 200.45997334 305.09165478 C200.46044809 307.2776473 200.46092398 309.46363983 200.461401 311.64963235 C200.46163737 312.73369807 200.46187375 313.81776379 200.46211729 314.93467998 C200.4633185 320.42718696 200.46453395 325.91969395 200.46575928 331.41220093 C200.46599943 332.50220891 200.46623958 333.5922169 200.466487 334.71525543 C200.47438234 370.06678114 200.49781931 405.41827333 200.53031522 440.7697844 C200.56459998 478.13545815 200.58432317 515.50111229 200.58761758 552.86680204 C200.58803512 556.96730094 200.58851469 561.06779983 200.58904076 565.16829872 C200.58916395 566.17797499 200.58928714 567.18765126 200.58941406 568.22792378 C200.59174765 584.48754327 200.6074163 600.74712385 200.6278826 617.00672947 C200.64812138 633.34453022 200.65362711 649.68228417 200.64411197 666.02009513 C200.63888961 675.72949946 200.64480917 685.43874815 200.66664664 695.14813013 C200.68013065 701.63272875 200.67909901 708.11721995 200.66624468 714.60181958 C200.65933208 718.29732472 200.65873262 721.99253179 200.67580477 725.6880106 C200.69405228 729.67035241 200.68130891 733.65225569 200.66557789 737.6346159 C200.6809112 739.35223161 200.6809112 739.35223161 200.69655427 741.10454664 C200.63041658 748.75186438 199.7354548 756.30977974 194.42057367 762.21026612 C189.91700726 766.36603042 185.41421908 768.51014536 179.21934509 768.53485107 C178.24799118 768.54338104 177.27663727 768.55191101 176.27584839 768.56069946 C175.22170746 768.55979309 174.16756653 768.55888672 173.08148193 768.55795288 C171.96218796 768.5646701 170.84289398 768.57138733 169.68968201 768.57830811 C165.98926352 768.59730669 162.28902624 768.60121334 158.58856201 768.60336304 C156.01412379 768.60978985 153.43968631 768.61651812 150.86524963 768.62353516 C145.46758012 768.63551273 140.06998241 768.63930119 134.67230225 768.63803101 C128.44709208 768.63683046 122.22222909 768.6579182 115.99710673 768.68951833 C109.9940463 768.71889769 103.99117328 768.72600505 97.98803139 768.72481155 C95.44078466 768.72716928 92.89353527 768.73600236 90.34633446 768.75147629 C86.77989433 768.77111248 83.21434319 768.76530639 79.64788818 768.75326538 C78.59981995 768.76450439 77.55175171 768.77574341 76.47192383 768.787323 C69.11298359 768.72431714 63.95047266 767.39786619 58.14715576 762.59164429 C57.70114014 762.0515271 57.25512451 761.51140991 56.79559326 760.95492554 C56.33410889 760.42254272 55.87262451 759.89015991 55.39715576 759.34164429 C51.87846467 753.3912463 51.88536893 747.16667714 51.9244976 740.45733738 C51.92218992 739.48182235 51.91988223 738.50630732 51.91750461 737.50123122 C51.91220112 734.22486827 51.92119175 730.94870096 51.93008423 727.67234802 C51.92921224 725.30279556 51.92746137 722.93324328 51.9249059 720.56369203 C51.92136293 715.40807058 51.92403834 710.25249078 51.93218231 705.09687614 C51.9442584 697.43068528 51.94485336 689.7645235 51.94309833 682.09832486 C51.94047109 669.20222487 51.94715123 656.30614537 51.95913315 643.41005135 C51.9709666 630.64103151 51.97866492 617.8720202 51.98083878 605.10299492 C51.98097625 604.30909939 51.98111373 603.51520386 51.98125538 602.6972509 C51.98193204 598.66546788 51.98253481 594.63368485 51.98310913 590.60190182 C51.98731012 562.04370795 52.00078529 533.48552523 52.01971436 504.92733765 C52.03808263 477.18319762 52.05225015 449.43906066 52.06072998 421.69491577 C52.06099303 420.83974242 52.06125609 419.98456906 52.06152711 419.10348136 C52.06416415 410.51549057 52.06671577 401.92749975 52.06920483 393.33950891 C52.07427727 375.84473206 52.07991978 358.3499554 52.08590698 340.85517883 C52.08631885 339.64860265 52.08631885 339.64860265 52.08673904 338.41765119 C52.10514083 284.70090462 52.13687287 230.9841644 52.17059326 177.26742554 C50.52059326 177.59742554 48.87059326 177.92742554 47.17059326 178.26742554 C46.75100342 179.70795288 46.75100342 179.70795288 46.32293701 181.17758179 C42.99207545 192.57621526 39.54694589 203.93853205 36.07781982 215.29574585 C34.60543672 220.1186326 33.13822475 224.94309118 31.67059326 229.76742554 C31.08728585 231.68410009 30.50395249 233.60076675 29.92059326 235.51742554 C29.48746826 236.94055054 29.48746826 236.94055054 29.04559326 238.39242554 C28.17059326 241.26742554 27.29559326 244.14242554 26.42059326 247.01742554 C26.14827881 247.91219604 25.87596436 248.80696655 25.59539795 249.72885132 C25.01016396 251.65171885 24.42488343 253.57457222 23.83953857 255.49740601 C22.45909215 260.03235689 21.0791501 264.56745756 19.70184326 269.10336304 C13.80901736 288.50151063 7.85305322 307.88031715 1.90515137 327.2616272 C-5.50610474 351.40201458 -5.50610474 351.40201458 -12.88409424 375.55258179 C-13.15185669 376.43083618 -13.41961914 377.30909058 -13.69549561 378.21395874 C-15.31397848 383.53502719 -16.89627881 388.8658872 -18.45440674 394.20492554 C-20.19952412 400.17664969 -22.01916358 406.12025082 -23.88897705 412.05404663 C-25.53777135 417.29986281 -27.1300272 422.56133259 -28.70440674 427.82992554 C-31.74726015 438.01208361 -34.83884076 448.17903194 -37.93829346 458.34408569 C-39.40367922 463.15135395 -40.86642277 467.95942592 -42.32940674 472.76742554 C-42.91272712 474.68409615 -43.49606046 476.60076281 -44.07940674 478.51742554 C-44.36815674 479.46617554 -44.65690674 480.41492554 -44.95440674 481.39242554 C-48.16274007 491.9340922 -51.3710734 502.47575887 -54.57940674 513.01742554 C-54.86807617 513.96593384 -55.15674561 514.91444214 -55.4541626 515.89169312 C-56.03825793 517.81081695 -56.62240518 519.729925 -57.206604 521.64901733 C-58.653702 526.40296193 -60.09993444 531.1571662 -61.54425049 535.91195679 C-64.65914537 546.16227809 -67.79506405 556.40571023 -70.95440674 566.64242554 C-73.39655726 574.55738204 -75.79543321 582.48175041 -78.1116333 590.43441772 C-79.61653155 595.58648115 -81.20299534 600.71107096 -82.81451416 605.83065796 C-86.98757761 619.10741487 -91.01720545 632.42950575 -94.91973877 645.78817749 C-97.51324521 654.64147491 -100.2229172 663.4597158 -102.91778564 672.28256226 C-104.41130454 677.17269671 -105.90212804 682.06365047 -107.39190674 686.95492554 C-107.68162354 687.90585083 -107.97134033 688.85677612 -108.26983643 689.83651733 C-110.18227723 696.12078922 -112.07316894 702.41125267 -113.95440674 708.70492554 C-116.30600241 716.55819351 -118.68403807 724.40128065 -121.17755127 732.21078491 C-121.63467158 733.65302518 -122.08564615 735.09722098 -122.53204346 736.54281616 C-126.88504066 750.62826603 -131.30735447 763.5967637 -144.83331299 771.42758179 C-150.80878526 774.02298894 -157.25675136 774.46899125 -163.44268799 772.38851929 C-175.48329693 766.85239712 -181.19787822 757.27421147 -185.82940674 745.26742554 C-187.73362598 739.53046803 -189.23771509 733.68319681 -190.78253174 727.84164429 C-193.25710888 718.52641114 -196.04927701 709.30768769 -198.82940674 700.07992554 C-199.22299881 698.76977982 -199.22299881 698.76977982 -199.62454224 697.4331665 C-202.25555197 688.67765767 -204.8944326 679.92649231 -207.70758057 671.22738647 C-208.0159082 670.27122437 -208.32423584 669.31506226 -208.64190674 668.32992554 C-208.87387253 667.61565399 -209.10583832 666.90138245 -209.34483337 666.16546631 C-211.41554037 659.72378649 -213.26431857 653.23576936 -215.05987549 646.71273804 C-218.35755573 634.84037086 -221.82804233 623.02565415 -225.38165283 611.22763062 C-226.33221367 608.07060309 -227.27831175 604.91226233 -228.22393799 601.75375366 C-231.26166135 591.63168604 -234.35963012 581.53379508 -237.58721924 571.47055054 C-239.95501968 564.08774405 -242.19405981 556.69424208 -244.20440674 549.20492554 C-247.72667983 536.3823139 -251.667842 523.70293807 -255.65460205 511.0184021 C-256.85521415 507.18502631 -258.04395389 503.34817546 -259.22784424 499.50961304 C-263.72990171 484.84266261 -263.72990171 484.84266261 -268.51690674 470.26742554 C-270.74117465 463.7236749 -272.59757578 457.09851367 -274.45904541 450.44515991 C-276.23938737 444.15375142 -278.22081719 437.95590414 -280.32940674 431.76742554 C-282.79974648 424.50224399 -285.09139808 417.20737386 -287.20440674 409.82992554 C-287.45512939 408.95980835 -287.70585205 408.08969116 -287.96417236 407.19320679 C-288.41825863 405.58429944 -288.85643304 403.97078092 -289.27545166 402.35238647 C-289.72670592 400.65396806 -290.27089487 398.98046205 -290.84112549 397.31820679 C-290.8211716 392.12354504 -287.89241161 388.25353972 -285.26690674 383.89242554 C-284.67627441 382.88075317 -284.08564209 381.86908081 -283.47711182 380.82675171 C-282.22996212 378.69420962 -280.9754844 376.56593828 -279.71417236 374.44174194 C-277.35892021 370.47503359 -275.03857174 366.48855903 -272.71832275 362.50131226 C-271.57265415 360.53416194 -270.42465852 358.56836525 -269.2744751 356.60385132 C-264.73858683 348.85563938 -260.27378544 341.06828885 -255.82940674 333.26742554 C-250.28971775 323.54608455 -244.69565611 313.85847461 -239.04595947 304.20053101 C-232.89173932 293.67657929 -226.80570678 283.11362416 -220.72052002 272.5496521 C-217.59260526 267.12082611 -214.46082226 261.69423273 -211.32940674 256.26742554 C-210.07938795 254.10076971 -208.82938795 251.93410304 -207.57940674 249.76742554 C-190.07940674 219.4340922 -172.57940674 189.10075887 -155.07940674 158.76742554 C-154.46017334 157.69403931 -153.84093994 156.62065308 -153.20294189 155.51473999 C-151.95799392 153.35692751 -150.71287784 151.19921201 -149.46759033 149.04159546 C-146.26388023 143.49025961 -143.06347044 137.93706012 -139.86846924 132.38070679 C-133.29019392 120.94709595 -126.69000947 109.53443164 -119.82940674 98.26742554 C-119.49940674 98.92742554 -119.16940674 99.58742554 -118.82940674 100.26742554 C-119.62701416 102.52865601 -119.62701416 102.52865601 -120.93487549 105.38461304 C-121.42536377 106.47000366 -121.91585205 107.55539429 -122.42120361 108.67367554 C-122.94778564 109.81836304 -123.47436768 110.96305054 -124.01690674 112.14242554 C-129.98357378 125.22226398 -135.6407249 138.42884725 -141.28463745 151.65054321 C-143.65353883 157.19702681 -146.0306682 162.73997555 -148.40753174 168.28305054 C-149.33832416 170.45474264 -150.26906906 172.62645511 -151.19976807 174.79818726 C-151.66879547 175.89258118 -152.13782288 176.9869751 -152.62106323 178.11453247 C-154.13678374 181.65130882 -155.65241405 185.18812382 -157.16802979 188.72494507 C-158.23092296 191.20525694 -159.29383123 193.68556234 -160.35675049 196.16586304 C-160.75415971 197.09321196 -160.75415971 197.09321196 -161.1595974 198.0392952 C-164.67708491 206.24714138 -168.19592611 214.45440573 -171.71609497 222.66110229 C-173.84720808 227.62945136 -175.97776331 232.59803964 -178.1083374 237.56661987 C-179.10981789 239.9017602 -180.11151714 242.23680672 -181.11346436 244.57174683 C-181.58659058 245.67433838 -182.0597168 246.77692993 -182.54718018 247.91293335 C-183.01366974 248.99949219 -183.4801593 250.08605103 -183.96078491 251.20553589 C-184.87765318 253.34658163 -185.79119209 255.48905655 -186.70120239 257.63302612 C-189.08303727 263.23971364 -191.52017469 268.81286372 -194.04180908 274.35824585 C-194.56256516 275.52654938 -195.08332123 276.69485291 -195.61985779 277.89855957 C-196.61442363 280.12868179 -197.62793489 282.35048832 -198.66358948 284.56182861 C-201.60565138 291.23432046 -202.37160746 295.38607617 -199.82940674 302.26742554 C-199.60414307 303.10571899 -199.37887939 303.94401245 -199.14678955 304.80770874 C-198.94408447 305.4711731 -198.74137939 306.13463745 -198.53253174 306.81820679 C-198.18255127 307.97352905 -198.18255127 307.97352905 -197.82550049 309.15219116 C-197.57928955 309.95334351 -197.33307861 310.75449585 -197.07940674 311.57992554 C-196.54286102 313.34682609 -196.00640522 315.11375394 -195.47003174 316.88070679 C-195.19739502 317.77483276 -194.9247583 318.66895874 -194.64385986 319.59017944 C-193.35950459 323.81207389 -192.09504127 328.03988938 -190.82940674 332.26742554 C-190.32951138 333.93412359 -189.82951115 335.6007902 -189.32940674 337.26742554 C-174.32940674 387.26742554 -174.32940674 387.26742554 -173.57891846 389.76913452 C-173.08060583 391.43012251 -172.58223376 393.09109266 -172.08380127 394.75204468 C-170.807488 399.00544838 -169.53231668 403.25918927 -168.25909424 407.51351929 C-168.00079834 408.3759021 -167.74250244 409.23828491 -167.47637939 410.12680054 C-166.96763368 411.82583744 -166.45948133 413.52505215 -165.95196533 415.22445679 C-164.84731505 418.91497622 -163.73209509 422.60041705 -162.56378174 426.27133179 C-162.19768799 427.42504272 -161.83159424 428.57875366 -161.45440674 429.76742554 C-160.97874268 431.23695679 -160.97874268 431.23695679 -160.49346924 432.73617554 C-159.82940674 435.26742554 -159.82940674 435.26742554 -159.82940674 439.26742554 C-157.18940674 439.26742554 -154.54940674 439.26742554 -151.82940674 439.26742554 C-151.72885986 438.32898804 -151.62831299 437.39055054 -151.52471924 436.42367554 C-150.79951926 431.3801245 -149.22877944 426.61717839 -147.70440674 421.76742554 C-147.06756153 419.7088709 -146.43084646 417.65027601 -145.79425049 415.59164429 C-145.30480957 414.01842407 -145.30480957 414.01842407 -144.80548096 412.41342163 C-143.27323289 407.47481518 -141.77014618 402.5274235 -140.26690674 397.57992554 C-139.97606201 396.62473022 -139.68521729 395.66953491 -139.38555908 394.68539429 C-137.5185566 388.55050982 -135.66814231 382.41083586 -133.82940674 376.26742554 C-130.24022803 364.27559927 -126.58513983 352.30394616 -122.93389893 340.3309021 C-119.88017562 330.31535713 -116.8317328 320.29851495 -113.82940674 310.26742554 C-110.24022803 298.27559927 -106.58513983 286.30394616 -102.93389893 274.3309021 C-99.88017562 264.31535713 -96.8317328 254.29851495 -93.82940674 244.26742554 C-90.24022803 232.27559927 -86.58513983 220.30394616 -82.93389893 208.3309021 C-79.88017562 198.31535713 -76.8317328 188.29851495 -73.82940674 178.26742554 C-70.24022803 166.27559927 -66.58513983 154.30394616 -62.93389893 142.3309021 C-59.88017562 132.31535713 -56.8317328 122.29851495 -53.82940674 112.26742554 C-51.1190936 103.21198222 -48.37204396 94.167982 -45.61456299 85.12680054 C-44.43009061 81.24281791 -43.25060311 77.35737797 -42.07550049 73.47055054 C-38.93485766 63.09449159 -35.72459346 52.74694242 -32.39068604 42.4312439 C-30.90260148 37.78659092 -29.49240739 33.13370722 -28.19659424 28.43148804 C-27.93435059 27.48161011 -27.67210693 26.53173218 -27.4019165 25.55307007 C-26.91055081 23.75207984 -26.42860364 21.94848176 -25.95806885 20.14193726 C-23.82875978 12.3166684 -20.52492613 7.0881995 -13.82940674 2.26742554 C-9.19264987 0.34157537 -4.95771857 -0.02159367 0 0 Z " fill="#FFFFFF" transform="translate(1642.8294067382813,610.7325744628906)"/>
<path d="M0 0 C1.37396345 -0.008705 2.7479172 -0.01907489 4.12185669 -0.03097534 C7.83904744 -0.05766713 11.55583038 -0.05892254 15.27309823 -0.05384874 C18.38417082 -0.05170271 21.49516201 -0.06149314 24.60621709 -0.07105958 C31.95124493 -0.09322059 39.29606821 -0.09414215 46.64111328 -0.08203125 C54.1990866 -0.06996008 61.75631448 -0.0945576 69.31416065 -0.13717139 C75.81976011 -0.17249306 82.32512328 -0.18439193 88.83081502 -0.1778959 C92.70897815 -0.17428311 96.5866098 -0.17941052 100.46468544 -0.20732498 C104.11518966 -0.23261972 107.76453955 -0.22846817 111.41502762 -0.2025032 C113.37877205 -0.19557483 115.34255287 -0.21802936 117.3061676 -0.24163818 C125.43188895 -0.14584811 131.07426579 1.33002966 137.4206543 6.54931641 C146.90788697 16.56507937 151.31480904 29.89734806 156.40283203 42.47460938 C158.39288772 47.39341824 160.39623482 52.3068198 162.3972168 57.22119141 C162.81163025 58.24007446 163.2260437 59.25895752 163.65301514 60.30871582 C168.03372449 71.07291418 172.47552548 81.81160153 176.9206543 92.54931641 C183.12114362 107.5356021 189.2885876 122.53490658 195.4206543 137.54931641 C201.99352425 153.64259064 208.6098543 169.71742337 215.25317383 185.78173828 C220.66257496 198.86269368 226.05442166 211.95059308 231.4206543 225.04931641 C238.14424155 241.46111826 244.9085374 257.85592864 251.68823242 274.24462891 C253.17939834 277.84927661 254.66790777 281.45500421 256.15454102 285.06152344 C257.75627395 288.94661711 259.36965723 292.82668758 260.98754883 296.70507812 C261.82086448 298.7142953 262.65403917 300.72357095 263.48706055 302.73291016 C263.8813475 303.67240005 264.27563446 304.61188995 264.68186951 305.57984924 C265.04112015 306.449478 265.40037079 307.31910675 265.77050781 308.21508789 C266.08987808 308.98143051 266.40924835 309.74777313 266.73829651 310.53733826 C267.4206543 312.54931641 267.4206543 312.54931641 267.4206543 315.54931641 C270.3906543 315.21931641 273.3606543 314.88931641 276.4206543 314.54931641 C276.90606689 313.3331665 277.39147949 312.1170166 277.89160156 310.86401367 C290.16826123 280.11264981 302.52025234 249.3923129 314.92137146 218.69094849 C320.29012602 205.39884267 325.65081591 192.10348765 331.01104355 178.80794144 C332.32305838 175.5536591 333.63516309 172.29941299 334.94726562 169.04516602 C336.52851331 165.12338352 338.10975751 161.20159962 339.69096375 157.27980042 C342.55847046 150.16767053 345.42611166 143.05559491 348.29417706 135.9436903 C349.58133795 132.7519317 350.86839938 129.56013308 352.15522766 126.36824036 C354.46671379 120.63502795 356.77887661 114.90209444 359.09500217 109.17075443 C360.38512638 105.97816706 361.67455831 102.78530044 362.96362305 99.59228516 C363.34973283 98.6359295 363.34973283 98.6359295 363.74364281 97.66025352 C367.49387117 88.36740535 371.21141709 79.0619043 374.91125488 69.74888611 C377.06948751 64.31678518 379.23565464 58.88785834 381.40353012 53.45959949 C383.18469854 48.9975164 384.95533602 44.53144532 386.71816349 40.06208706 C387.81392553 37.29145851 388.91979791 34.52494737 390.02840233 31.75943565 C390.78138314 29.87226649 391.52217892 27.98024955 392.26252747 26.08808899 C396.23250739 16.23115442 401.60174512 6.24602391 411.66254711 1.48937035 C414.72794429 0.44458184 417.12460356 0.29239369 420.35896301 0.28189087 C421.54908493 0.2733609 422.73920685 0.26483093 423.96539307 0.25604248 C425.91128326 0.25740204 425.91128326 0.25740204 427.89648438 0.25878906 C429.2832424 0.25280143 430.6699971 0.24599534 432.05674744 0.23843384 C435.81721704 0.22078929 439.57759558 0.21607908 443.33810258 0.21480227 C445.68987041 0.2133791 448.0416152 0.20910634 450.3933773 0.20380783 C458.60471436 0.18531184 466.81598655 0.17713657 475.02734375 0.17871094 C482.67034789 0.17991185 490.31306941 0.15881846 497.95600206 0.12722361 C504.52688762 0.10103264 511.09768105 0.09034484 517.66861838 0.09162176 C521.58911975 0.09213061 525.50936993 0.08649007 529.42981911 0.06526566 C533.11945493 0.04583574 536.80860122 0.04579074 540.49825478 0.06029892 C542.48863737 0.06337158 544.47902026 0.0467434 546.46932983 0.02941895 C553.59675961 0.07930446 558.39441209 0.63360204 564.4206543 4.54931641 C567.46534143 7.82235507 568.67271341 10.40611377 568.9206543 14.79931641 C568.19586202 25.8939357 561.02217856 36.90303201 556.2956543 46.79931641 C555.49324627 48.48535983 554.69116942 50.17156091 553.8894043 51.85791016 C552.22629372 55.35526476 550.56177174 58.85194223 548.89624023 62.34814453 C545.42990115 69.62728743 541.98097507 76.91466424 538.53182983 84.20196533 C536.66099432 88.15409314 534.78877469 92.10556521 532.91674805 96.05712891 C530.30109762 101.57884094 527.68592369 107.10077829 525.07131958 112.62298584 C516.63390441 130.44328311 508.18640689 148.2587304 499.72418213 166.06726074 C493.92782319 178.26597908 488.13877883 190.46813398 482.3581543 202.67431641 C481.98834442 203.45518616 481.61853455 204.23605591 481.23751831 205.04058838 C478.63157984 210.54334757 476.02606607 216.04630782 473.4206543 221.54931641 C470.44178411 227.84112349 467.46271778 234.1328376 464.4831543 240.42431641 C464.11342499 241.20502502 463.74369568 241.98573364 463.36276245 242.7901001 C457.15974857 255.88716996 450.94386535 268.97810033 444.72418213 282.06726074 C438.92782319 294.26597908 433.13877883 306.46813398 427.3581543 318.67431641 C426.98834442 319.45518616 426.61853455 320.23605591 426.23751831 321.04058838 C423.63157984 326.54334757 421.02606607 332.04630782 418.4206543 337.54931641 C415.44178411 343.84112349 412.46271778 350.1328376 409.4831543 356.42431641 C409.11342499 357.20502502 408.74369568 357.98573364 408.36276245 358.7901001 C402.55750405 371.04734735 396.74140502 383.29941967 390.9206543 395.54931641 C385.05175635 407.90129232 379.18514058 420.25434181 373.32885742 432.61230469 C372.63028669 434.08633873 371.9315715 435.56030433 371.23266602 437.03417969 C370.75144287 438.04907471 370.75144287 438.04907471 370.26049805 439.08447266 C369.93251221 439.77155807 369.60452637 440.45864349 369.26660156 441.16654968 C368.5716778 442.6443817 367.89341574 444.13013051 367.22949219 445.62214661 C365.22421103 450.05656998 363.05402575 454.20203424 360.42379665 458.30311108 C348.30002392 477.44242535 345.98589314 495.33853918 346.1315918 517.77197266 C346.13557755 518.45052937 346.13956331 519.12908607 346.14366984 519.82820511 C346.21311088 529.70652723 346.45701373 539.57910614 346.73519135 549.45341492 C347.01492203 559.43921799 347.26084878 569.42324257 347.35620081 579.41271013 C347.40517032 584.02214837 347.56482427 588.61941684 347.74887085 593.22584534 C348.15150834 610.71897683 343.94776194 622.19534256 334.2814827 636.70130825 C331.14126612 641.50742708 328.33123811 646.50409807 325.4831543 651.48681641 C324.31791857 653.47853967 323.15164837 655.46965923 321.9831543 657.45947266 C318.28852119 663.7650206 314.63212748 670.09226077 310.9831543 676.42431641 C310.36061768 677.50447021 309.73808105 678.58462402 309.09667969 679.69750977 C307.83488603 681.88727975 306.57324896 684.07713996 305.31176758 686.26708984 C302.18385281 691.69591583 299.05206982 697.12250922 295.9206543 702.54931641 C294.67063551 704.71597223 293.42063551 706.8826389 292.1706543 709.04931641 C243.4206543 793.54931641 243.4206543 793.54931641 194.6706543 878.04931641 C194.0509375 879.1235083 193.4312207 880.1977002 192.79272461 881.30444336 C191.55254668 883.45405275 190.31231303 885.60362999 189.07202148 887.75317383 C186.147152 892.82240853 183.22284597 897.89196577 180.30053711 902.962677 C178.92258492 905.35358238 177.54431257 907.74430312 176.16601562 910.13500977 C175.19524447 911.81915604 174.22493555 913.50356872 173.25463867 915.18798828 C172.66489258 916.21085937 172.07514648 917.23373047 171.4675293 918.28759766 C170.95029297 919.18518799 170.43305664 920.08277832 169.90014648 921.00756836 C168.42892709 923.53510385 166.93113601 926.04508191 165.4206543 928.54931641 C164.24137829 925.01148838 164.59883653 924.48938234 166.0534668 921.20043945 C166.44065887 920.31180206 166.82785095 919.42316467 167.22677612 918.50759888 C167.66200592 917.53523285 168.09723572 916.56286682 168.5456543 915.56103516 C168.99514435 914.5354953 169.4446344 913.50995544 169.90774536 912.45333862 C170.88789249 910.21959685 171.8723925 907.98776131 172.86065674 905.75759888 C175.24701407 900.37179233 177.60787696 894.97485365 179.97067642 889.57868004 C180.79519263 887.69659955 181.62089132 885.81504111 182.44674683 883.93354797 C188.24970696 870.70358766 193.90284257 857.41080431 199.5456543 844.11181641 C201.45492859 839.61664963 203.36520317 835.12190887 205.27612305 830.62744141 C205.72506424 829.57142731 206.17400543 828.51541321 206.6365509 827.42739868 C210.83760553 817.55378362 215.09707674 807.7062221 219.37890625 797.86743164 C223.47061323 788.46036239 227.47344477 779.01784924 231.4206543 769.54931641 C229.64561523 769.51064453 229.64561523 769.51064453 227.8347168 769.47119141 C208.67124714 768.8650476 208.67124714 768.8650476 201.8190918 763.23291016 C195.51830905 756.47154388 194.99030375 748.50297626 195.13632202 739.80033875 C195.14166981 738.74014033 195.14701761 737.67994191 195.15252745 736.58761626 C195.17362972 733.0455426 195.21606012 729.5040409 195.25805664 725.9621582 C195.27687978 723.41682506 195.29412786 720.87147985 195.30992126 718.3261261 C195.3410054 713.5542027 195.37656511 708.78238775 195.4190097 704.01055328 C195.50241231 694.59959418 195.5456102 685.18881211 195.57437134 675.77754211 C195.57910469 674.29054929 195.58385418 672.80355651 195.58861959 671.31656379 C195.59578803 669.06273017 195.60291042 666.80889643 195.60992163 664.55506232 C195.63638906 656.06183916 195.6661206 647.56863274 195.70092773 639.07543945 C195.7040929 638.29962203 195.70725807 637.52380461 195.71051915 636.72447757 C195.76314943 624.22250785 195.86716252 611.72142466 195.9880399 599.21995249 C196.11119971 586.3271435 196.16752977 573.43514902 196.16718066 560.54175121 C196.16900688 553.32564037 196.20080422 546.1124004 196.3115654 538.89706993 C196.77172495 507.95796945 196.5733175 481.74246784 179.52542496 455.00911903 C175.98896245 449.36953363 173.42325469 443.2490651 170.7331543 437.17431641 C166.40422961 427.74553966 161.95332551 418.38125907 157.4206543 409.04931641 C152.26884595 398.44193199 147.2546615 387.77705465 142.31518555 377.06884766 C138.1540672 368.0715627 133.86492775 359.14090716 129.53439331 350.22454834 C125.2587124 341.41618885 121.08254873 332.56638521 116.9831543 323.67431641 C112.40424431 313.74401529 107.70597594 303.88128252 102.9206543 294.04931641 C97.57969046 283.07572271 92.37417874 272.05098708 87.2644043 260.96728516 C83.40542212 252.6171648 79.43923424 244.32330275 75.4206543 236.04931641 C70.84747155 226.6334401 66.36582609 217.18084714 61.9831543 207.67431641 C57.40424431 197.74401529 52.70597594 187.88128252 47.9206543 178.04931641 C42.57969046 167.07572271 37.37417874 156.05098708 32.2644043 144.96728516 C28.40542212 136.6171648 24.43923424 128.32330275 20.4206543 120.04931641 C15.29306434 109.49195287 10.30368904 98.87711901 5.38989258 88.21826172 C1.60186722 80.02787467 -2.29184289 71.89503333 -6.24072266 63.78128052 C-8.12948623 59.89650251 -10.00780633 56.00666341 -11.88595581 52.116745 C-13.35403918 49.07737557 -14.82805088 46.04132434 -16.31225586 43.00976562 C-17.89921718 39.76076195 -19.46097678 36.50079796 -21.0168457 33.23681641 C-21.48364746 32.29547852 -21.95044922 31.35414063 -22.43139648 30.38427734 C-25.2358951 24.42134569 -26.64711274 19.15693553 -25.5793457 12.54931641 C-23.43379694 7.40542576 -20.87696991 4.16900433 -15.90847206 1.41331863 C-10.84023563 -0.46677153 -5.33662158 -0.02069705 0 0 Z " fill="#FEFEFE" transform="translate(940.579345703125,449.45068359375)"/>
<path d="M0 0 C0.33 0 0.66 0 1 0 C1.06849293 29.00300992 1.12155747 58.00601192 1.15319599 87.0090866 C1.15694794 90.43607089 1.16083092 93.86305501 1.16479492 97.29003906 C1.16558185 97.97226674 1.16636878 98.65449442 1.16717956 99.35739566 C1.18022018 110.39225892 1.20386659 121.4270751 1.23145839 132.46191047 C1.25955005 143.79146235 1.27595976 155.12097941 1.28226548 166.45056832 C1.2861739 172.81137018 1.29534977 179.17206543 1.31719017 185.5328331 C1.33759069 191.52292589 1.34382652 197.51286839 1.33932304 203.50299263 C1.34014664 205.6983287 1.3460909 207.89366993 1.35761642 210.08897591 C1.37261619 213.09407642 1.36892622 216.09861481 1.36076355 219.10372925 C1.36950207 219.96562799 1.3782406 220.82752674 1.38724393 221.71554363 C1.33394013 229.01180267 0.19897516 236.06803312 -4.25 242 C-10.67832063 246.67514228 -17.76070928 246.29708916 -25.40795898 246.29052734 C-26.53729858 246.29724457 -27.66663818 246.30396179 -28.8302002 246.31088257 C-32.55220982 246.32983382 -36.27403892 246.33378508 -39.99609375 246.3359375 C-42.59009373 246.34236641 -45.18409297 246.34909484 -47.77809143 246.35610962 C-53.21088654 246.36807449 -58.64361035 246.371877 -64.07641602 246.37060547 C-70.34142934 246.36940379 -76.60609834 246.39051898 -82.87102455 246.4220928 C-88.91680374 246.45146773 -94.96239687 246.45857973 -101.00825691 246.45738602 C-103.57225007 246.45974335 -106.13624588 246.46857422 -108.70019341 246.48405075 C-112.28796748 246.50368328 -115.87485766 246.49788283 -119.46264648 246.48583984 C-120.51692337 246.49707886 -121.57120026 246.50831787 -122.65742493 246.51989746 C-129.2085829 246.46412213 -133.36666002 245.38393105 -139 242 C-135.15618294 234.09464461 -131.04462732 226.43491929 -126.5625 218.875 C-125.32231764 216.76597714 -124.08275562 214.65658939 -122.84375 212.546875 C-121.89242188 210.92942383 -121.89242188 210.92942383 -120.921875 209.27929688 C-117.77515892 203.91005267 -114.66841381 198.51791809 -111.5625 193.125 C-110.62966187 191.50634033 -110.62966187 191.50634033 -109.67797852 189.85498047 C-108.41550269 187.66417049 -107.15321444 185.4732524 -105.89111328 183.28222656 C-102.76319852 177.85340058 -99.63141552 172.42680719 -96.5 167 C-95.24998121 164.83334417 -93.99998122 162.6666775 -92.75 160.5 C-75.25 130.16666667 -57.75 99.83333333 -40.25 69.5 C-39.63116943 68.42733887 -39.01233887 67.35467773 -38.37475586 66.24951172 C-37.12564482 64.08442929 -35.87645871 61.91939018 -34.62719727 59.75439453 C-31.48797691 54.31384294 -28.35009437 48.87252784 -25.21484375 43.4296875 C-22.11016528 38.04072124 -19.00141094 32.6541278 -15.88916016 27.26953125 C-14.59093467 25.02271868 -13.29363627 22.7753938 -11.99755859 20.52734375 C-10.04454674 17.14061425 -8.08504586 13.75766386 -6.125 10.375 C-5.52357178 9.33069824 -4.92214355 8.28639648 -4.30249023 7.21044922 C-3.75149658 6.26186035 -3.20050293 5.31327148 -2.6328125 4.3359375 C-1.90408936 3.07595947 -1.90408936 3.07595947 -1.16064453 1.79052734 C-0.77763184 1.19965332 -0.39461914 0.6087793 0 0 Z " fill="#FEFEFE" transform="translate(1278,1133)"/>
<path d="M0 0 C0.33 0.66 0.66 1.32 1 2 C-0.07335699 4.76674582 -1.20260061 7.43194258 -2.4375 10.125 C-2.77587891 10.87910156 -3.11425781 11.63320313 -3.46289062 12.41015625 C-4.30160601 14.27659331 -5.14991393 16.1387143 -6 18 C-6.99 17.67 -7.98 17.34 -9 17 C-7.51481201 12.95698825 -5.57122002 9.38853744 -3.375 5.6875 C-2.74335937 4.61886719 -2.11171875 3.55023437 -1.4609375 2.44921875 C-0.97882813 1.64097656 -0.49671875 0.83273437 0 0 Z " fill="#D9D9D9" transform="translate(1523,709)"/>
<path d="M0 0 C1 3 1 3 -0.43359375 5.91796875 C-1.09488281 6.99691406 -1.75617188 8.07585937 -2.4375 9.1875 C-3.09621094 10.27417969 -3.75492188 11.36085938 -4.43359375 12.48046875 C-5.20896484 13.72763672 -5.20896484 13.72763672 -6 15 C-7.29257726 11.12226821 -6.39023724 10.01070374 -4.6875 6.375 C-4.23761719 5.39273437 -3.78773437 4.41046875 -3.32421875 3.3984375 C-2 1 -2 1 0 0 Z " fill="#D7D7D7" transform="translate(1112,1363)"/>
</svg>
